<?xml version="1.0" encoding="utf-8"?>
<svg xmlns="http://www.w3.org/2000/svg"
	xmlns:xlink="http://www.w3.org/1999/xlink"
	width="78px" height="78px" viewBox="0 0 78 78">
<filter filterUnits="objectBoundingBox" x="-16.13" y="-16.13" width="132.26" height="132.26" id="filter0">
<feGaussianBlur in="SourceAlpha" stdDeviation="5.00" result="dsBlurOut1"/>
<feFlood flood-color="rgb(0,0,0)" flood-opacity="0.22" result="dsFloodOut1"/>
<feComposite in="dsFloodOut1" in2="dsBlurOut1" operator="in" result="dsShadow1"/>
<feOffset in="dsShadow1" dx="1.00" dy="0.00" result="dsOffset1"/>
<feComposite in="dsOffset1" in2="SourceAlpha" operator="out" result="dropShadow1"/>
<feBlend in="dropShadow1" in2="SourceGraphic" mode="normal" result="sourceGraphic"/>
</filter>
<g><circle cx="38.00" cy="39.00" r="31.00" fill="rgb(255,255,255)" filter="url(#filter0)"/><path fillRule="evenodd" d="M 48.73 38.64C 48.73 38.64 34.81 29.05 34.81 29.05 34.67 28.95 34.47 28.94 34.32 29.02 34.16 29.1 34.06 29.26 34.06 29.44 34.06 29.44 34.06 48.62 34.06 48.62 34.06 48.8 34.16 48.96 34.32 49.04 34.39 49.08 34.46 49.1 34.54 49.1 34.64 49.1 34.73 49.07 34.81 49.01 34.81 49.01 48.73 39.42 48.73 39.42 48.86 39.33 48.94 39.19 48.94 39.03 48.94 38.87 48.86 38.72 48.73 38.64Z" fill="rgb(0,0,0)"/></g></svg>